# xmcd CD database file
#
# Track frame offsets:
#	150
#	22187
#	41204
#	62895
#	100990
#	123859
#	147430
#	168652
#	196543
#	216485
#
# Disc length: 3081 seconds
#
# Revision: 0
# Processed by: cddbd v1.5.2PL0 Copyright (c) Steve Scherf et al.
# Submitted via: CDex 1.51
#
DISCID=990c070a
DTITLE=Blues Clinic - Live In Twist 2006
DYEAR=2006
DGENRE=Blues
TTITLE0=Born In Georgia
TTITLE1=Finest Man In Town
TTITLE2=Tears Like Rain
TTITLE3=Stormy Monday
TTITLE4=Depressions
TTITLE5=Walk Don´t Walk
TTITLE6=Poor Man´s Blues
TTITLE7=Bad Times
TTITLE8=H.H. Blues
TTITLE9=Turnin´ Blues/Outskirts Of Town
EXTD=YEAR: 2006
EXTT0=
EXTT1=
EXTT2=
EXTT3=
EXTT4=
EXTT5=
EXTT6=
EXTT7=
EXTT8=
EXTT9=
PLAYORDER=
